<?xml version="1.0" encoding="UTF-8"?>
<svg id="Layer_1" xmlns="http://www.w3.org/2000/svg" xmlns:xlink="http://www.w3.org/1999/xlink" version="1.1" viewBox="0 0 690.6 626">
  <!-- Generator: Adobe Illustrator 29.3.1, SVG Export Plug-In . SVG Version: 2.1.0 Build 151)  -->
  <defs>
    <style>
      .st0 {
        fill: none;
      }

      .st1 {
        font-size: 22px;
      }

      .st1, .st2, .st3, .st4, .st5, .st6 {
        isolation: isolate;
      }

      .st1, .st5 {
        font-family: RussoOne-Regular, 'Russo One';
      }

      .st2 {
        font-size: 14px;
      }

      .st2, .st3, .st6 {
        font-family: Roboto-Medium, Roboto;
        font-weight: 500;
      }

      .st3, .st5 {
        font-size: 16px;
      }

      .st7 {
        fill: #8b8f91;
      }

      .st8 {
        fill: #e69f00;
      }

      .st8, .st9, .st10, .st11, .st12 {
        stroke-miterlimit: 10;
      }

      .st8, .st10, .st11, .st12 {
        stroke: #fff;
        stroke-width: .2px;
      }

      .st13 {
        clip-path: url(#clippath-10);
      }

      .st14 {
        clip-path: url(#clippath-1);
      }

      .st15 {
        clip-path: url(#clippath-3);
      }

      .st16 {
        clip-path: url(#clippath-4);
      }

      .st17 {
        clip-path: url(#clippath-2);
      }

      .st18 {
        clip-path: url(#clippath-7);
      }

      .st19 {
        clip-path: url(#clippath-6);
      }

      .st20 {
        clip-path: url(#clippath-9);
      }

      .st21 {
        clip-path: url(#clippath-8);
      }

      .st22 {
        clip-path: url(#clippath-5);
      }

      .st9 {
        fill: #fff;
        stroke: #000;
      }

      .st6 {
        font-size: 12px;
      }

      .st10 {
        fill: #ffde10;
      }

      .st11 {
        fill: #ff1e00;
      }

      .st23 {
        clip-path: url(#clippath);
      }

      .st12 {
        fill: #ff8000;
      }
    </style>
    <clipPath id="clippath">
      <rect class="st0" x="28.7" y="191.8" width="209.8" height="62.9"/>
    </clipPath>
    <clipPath id="clippath-1">
      <rect class="st0" x="263.4" y="193.2" width="211" height="63.3"/>
    </clipPath>
    <clipPath id="clippath-2">
      <rect class="st0" x="490.3" y="192.7" width="196.5" height="58.9"/>
    </clipPath>
    <clipPath id="clippath-3">
      <rect class="st0" x="25.7" y="284.7" width="227" height="68.1"/>
    </clipPath>
    <clipPath id="clippath-4">
      <rect class="st0" x="261.6" y="285" width="214.6" height="64.4"/>
    </clipPath>
    <clipPath id="clippath-5">
      <rect class="st0" x="477.6" y="290.2" width="212.7" height="63.8"/>
    </clipPath>
    <clipPath id="clippath-6">
      <rect class="st0" x="27" y="398.4" width="188.2" height="56.5"/>
    </clipPath>
    <clipPath id="clippath-7">
      <rect class="st0" x="261.6" y="404.2" width="205.9" height="61.8"/>
    </clipPath>
    <clipPath id="clippath-8">
      <rect class="st0" x="470.7" y="392.9" width="225" height="67.5"/>
    </clipPath>
    <clipPath id="clippath-9">
      <rect class="st0" x="258" y="498" width="195.4" height="58.6"/>
    </clipPath>
    <clipPath id="clippath-10">
      <rect class="st0" x="465.6" y="372.5" width="134.9" height="44"/>
    </clipPath>
  </defs>
  <g class="st23">
    <g>
      <rect class="st10" x="38.2" y="213.6" width="19.1" height="19.1"/>
      <rect class="st10" x="57.3" y="213.7" width="19.1" height="19.1"/>
      <rect class="st10" x="76.3" y="213.7" width="19.1" height="19.1"/>
      <rect class="st10" x="95.4" y="213.7" width="19.1" height="19.1"/>
      <rect class="st10" x="114.5" y="213.7" width="19.1" height="19.1"/>
      <rect class="st12" x="133.6" y="213.7" width="19.1" height="19.1"/>
      <rect class="st12" x="152.6" y="213.7" width="19.1" height="19.1"/>
      <rect class="st12" x="171.7" y="213.7" width="19.1" height="19.1"/>
      <rect class="st12" x="190.8" y="213.7" width="19.1" height="19.1"/>
      <rect class="st11" x="209.9" y="213.7" width="19.1" height="19.1"/>
      <rect class="st11" x="38.2" y="232.7" width="19.1" height="19.1"/>
      <rect class="st11" x="57.3" y="232.8" width="19.1" height="19.1"/>
      <rect class="st11" x="76.3" y="232.8" width="19.1" height="19.1"/>
      <rect class="st11" x="95.4" y="232.8" width="19.1" height="19.1"/>
      <rect class="st11" x="114.5" y="232.8" width="19.1" height="19.1"/>
      <rect class="st11" x="133.6" y="232.8" width="19.1" height="19.1"/>
    </g>
  </g>
  <g class="st14">
    <g>
      <rect class="st8" x="272.8" y="215.1" width="19.2" height="19.2"/>
      <rect class="st10" x="292.2" y="215.3" width="19.2" height="19.2"/>
      <rect class="st10" x="311.4" y="215.3" width="19.2" height="19.2"/>
      <rect class="st12" x="330.6" y="215.3" width="19.2" height="19.2"/>
      <rect class="st12" x="349.8" y="215.3" width="19.2" height="19.2"/>
      <rect class="st12" x="368.9" y="215.3" width="19.2" height="19.2"/>
      <rect class="st12" x="388.1" y="215.3" width="19.2" height="19.2"/>
      <rect class="st11" x="407.3" y="215.3" width="19.2" height="19.2"/>
      <rect class="st11" x="426.5" y="215.3" width="19.2" height="19.2"/>
      <rect class="st11" x="445.7" y="215.3" width="19.2" height="19.2"/>
      <rect class="st11" x="272.8" y="234.2" width="19.2" height="19.2"/>
    </g>
  </g>
  <g class="st17">
    <g>
      <rect class="st10" x="499.2" y="212.9" width="17.9" height="17.9"/>
      <rect class="st10" x="517.1" y="213.2" width="17.9" height="17.9"/>
      <rect class="st10" x="534.9" y="213.2" width="17.9" height="17.9"/>
      <rect class="st12" x="552.8" y="213.2" width="17.9" height="17.9"/>
      <rect class="st12" x="570.7" y="213.2" width="17.9" height="17.9"/>
      <rect class="st12" x="588.5" y="213.2" width="17.9" height="17.9"/>
      <rect class="st12" x="606.4" y="213.2" width="17.9" height="17.9"/>
      <rect class="st12" x="624.2" y="213.2" width="17.9" height="17.9"/>
      <rect class="st12" x="642.1" y="213.2" width="17.9" height="17.9"/>
      <rect class="st12" x="659.9" y="213.2" width="17.9" height="17.9"/>
      <rect class="st12" x="499.2" y="230.7" width="17.9" height="17.9"/>
      <rect class="st12" x="517.1" y="231" width="17.9" height="17.9"/>
      <rect class="st12" x="534.9" y="231" width="17.9" height="17.9"/>
      <rect class="st12" x="552.8" y="231" width="17.9" height="17.9"/>
      <rect class="st12" x="570.7" y="231" width="17.9" height="17.9"/>
      <rect class="st11" x="588.5" y="231" width="17.9" height="17.9"/>
      <rect class="st11" x="606.4" y="231" width="17.9" height="17.9"/>
    </g>
  </g>
  <g class="st15">
    <g>
      <rect class="st10" x="36.1" y="308.6" width="20.6" height="20.6"/>
      <rect class="st12" x="56.7" y="308.4" width="20.6" height="20.6"/>
      <rect class="st11" x="77.3" y="308.4" width="20.6" height="20.6"/>
      <rect class="st11" x="98" y="308.4" width="20.6" height="20.6"/>
      <rect class="st11" x="118.6" y="308.4" width="20.6" height="20.6"/>
      <rect class="st11" x="139.2" y="308.4" width="20.6" height="20.6"/>
      <rect class="st11" x="159.9" y="308.4" width="20.6" height="20.6"/>
      <rect class="st11" x="180.5" y="308.4" width="20.6" height="20.6"/>
    </g>
  </g>
  <line class="st0" x1="477.8" y1="344" x2="477.8" y2="300.3"/>
  <g class="st16">
    <g>
      <rect class="st8" x="271.4" y="307.4" width="19.5" height="19.5"/>
      <rect class="st10" x="290.9" y="307.5" width="19.5" height="19.5"/>
      <rect class="st10" x="310.4" y="307.5" width="19.5" height="19.5"/>
      <rect class="st10" x="329.9" y="307.5" width="19.5" height="19.5"/>
      <rect class="st10" x="349.4" y="307.5" width="19.5" height="19.5"/>
      <rect class="st12" x="368.9" y="307.5" width="19.5" height="19.5"/>
      <rect class="st12" x="388.4" y="307.5" width="19.5" height="19.5"/>
      <rect class="st12" x="408" y="307.5" width="19.5" height="19.5"/>
      <rect class="st12" x="427.5" y="307.5" width="19.5" height="19.5"/>
      <rect class="st12" x="447" y="307.5" width="19.5" height="19.5"/>
      <rect class="st11" x="271.4" y="326.9" width="19.5" height="19.5"/>
      <rect class="st11" x="290.9" y="327" width="19.5" height="19.5"/>
      <rect class="st11" x="310.4" y="327" width="19.5" height="19.5"/>
      <rect class="st11" x="329.9" y="327" width="19.5" height="19.5"/>
    </g>
  </g>
  <g class="st22">
    <g>
      <rect class="st8" x="487.2" y="293.1" width="19.3" height="19.3"/>
      <rect class="st8" x="506.6" y="312.5" width="19.3" height="19.3"/>
      <rect class="st8" x="525.9" y="312.5" width="19.3" height="19.3"/>
      <rect class="st10" x="545.3" y="312.5" width="19.3" height="19.3"/>
      <rect class="st12" x="564.6" y="312.5" width="19.3" height="19.3"/>
      <rect class="st12" x="583.9" y="312.5" width="19.3" height="19.3"/>
      <rect class="st12" x="603.3" y="312.5" width="19.3" height="19.3"/>
      <rect class="st11" x="622.6" y="312.5" width="19.3" height="19.3"/>
      <rect class="st11" x="642" y="312.5" width="19.3" height="19.3"/>
      <rect class="st11" x="661.3" y="312.5" width="19.3" height="19.3"/>
      <rect class="st11" x="487.2" y="312.5" width="19.3" height="19.3"/>
      <rect class="st11" x="506.6" y="331.8" width="19.3" height="19.3"/>
      <rect class="st11" x="525.9" y="331.8" width="19.3" height="19.3"/>
      <rect class="st11" x="545.3" y="331.8" width="19.3" height="19.3"/>
      <rect class="st11" x="564.6" y="331.8" width="19.3" height="19.3"/>
      <rect class="st11" x="583.9" y="331.8" width="19.3" height="19.3"/>
      <rect class="st11" x="603.3" y="331.8" width="19.3" height="19.3"/>
      <rect class="st11" x="622.6" y="331.8" width="19.3" height="19.3"/>
      <rect class="st11" x="642" y="331.8" width="19.3" height="19.3"/>
      <rect class="st11" x="661.3" y="331.8" width="19.3" height="19.3"/>
      <rect class="st11" x="487.2" y="331.8" width="19.3" height="19.3"/>
    </g>
  </g>
  <g class="st4">
    <g class="st4">
      <text class="st5" transform="translate(595.1 296.6)"><tspan x="0" y="0">Haas</tspan></text>
    </g>
  </g>
  <g class="st19">
    <g>
      <rect class="st10" x="35.6" y="418.2" width="17.1" height="17.1"/>
      <rect class="st10" x="52.7" y="418.1" width="17.1" height="17.1"/>
      <rect class="st10" x="69.8" y="418.1" width="17.1" height="17.1"/>
      <rect class="st10" x="86.9" y="418.1" width="17.1" height="17.1"/>
      <rect class="st10" x="104" y="418.1" width="17.1" height="17.1"/>
      <rect class="st12" x="121.1" y="418.1" width="17.1" height="17.1"/>
      <rect class="st12" x="138.2" y="418.1" width="17.1" height="17.1"/>
      <rect class="st12" x="155.3" y="418.1" width="17.1" height="17.1"/>
      <rect class="st12" x="172.4" y="418.1" width="17.1" height="17.1"/>
      <rect class="st12" x="189.5" y="418.1" width="17.1" height="17.1"/>
      <rect class="st12" x="35.6" y="435.3" width="17.1" height="17.1"/>
      <rect class="st12" x="52.7" y="435.2" width="17.1" height="17.1"/>
      <rect class="st11" x="69.8" y="435.2" width="17.1" height="17.1"/>
      <rect class="st11" x="86.9" y="435.2" width="17.1" height="17.1"/>
      <rect class="st11" x="104" y="435.2" width="17.1" height="17.1"/>
      <rect class="st11" x="121.1" y="435.2" width="17.1" height="17.1"/>
      <rect class="st11" x="138.2" y="435.2" width="17.1" height="17.1"/>
      <rect class="st11" x="155.3" y="435.2" width="17.1" height="17.1"/>
      <rect class="st11" x="172.4" y="435.2" width="17.1" height="17.1"/>
    </g>
  </g>
  <g class="st18">
    <g>
      <rect class="st10" x="271" y="425.8" width="18.7" height="18.7"/>
      <rect class="st10" x="289.7" y="425.7" width="18.7" height="18.7"/>
      <rect class="st10" x="308.4" y="425.7" width="18.7" height="18.7"/>
      <rect class="st10" x="327.1" y="425.7" width="18.7" height="18.7"/>
      <rect class="st10" x="345.9" y="425.7" width="18.7" height="18.7"/>
      <rect class="st12" x="364.6" y="425.7" width="18.7" height="18.7"/>
      <rect class="st12" x="383.3" y="425.7" width="18.7" height="18.7"/>
      <rect class="st11" x="402" y="425.7" width="18.7" height="18.7"/>
    </g>
  </g>
  <g class="st21">
    <g>
      <rect class="st10" x="481.4" y="416.5" width="20.5" height="20.5"/>
      <rect class="st10" x="501.4" y="416.4" width="20.5" height="20.5"/>
      <rect class="st10" x="521.8" y="416.4" width="20.5" height="20.5"/>
      <rect class="st10" x="542.3" y="416.4" width="20.5" height="20.5"/>
      <rect class="st10" x="562.8" y="416.4" width="20.5" height="20.5"/>
      <rect class="st10" x="583.2" y="416.4" width="20.5" height="20.5"/>
      <rect class="st12" x="603.7" y="416.4" width="20.5" height="20.5"/>
      <rect class="st12" x="624.1" y="416.4" width="20.5" height="20.5"/>
      <rect class="st11" x="644.6" y="416.4" width="20.5" height="20.5"/>
      <rect class="st11" x="665" y="416.4" width="20.5" height="20.5"/>
      <rect class="st11" x="481.4" y="437" width="20.5" height="20.5"/>
      <rect class="st11" x="501.4" y="436.9" width="20.5" height="20.5"/>
      <rect class="st11" x="521.8" y="436.9" width="20.5" height="20.5"/>
      <rect class="st11" x="542.3" y="436.9" width="20.5" height="20.5"/>
      <rect class="st11" x="562.8" y="436.9" width="20.5" height="20.5"/>
      <rect class="st11" x="583.2" y="436.9" width="20.5" height="20.5"/>
    </g>
  </g>
  <g class="st20">
    <g>
      <rect class="st8" x="266.8" y="500.7" width="17.8" height="17.8"/>
      <rect class="st10" x="284.6" y="518.4" width="17.8" height="17.8"/>
      <rect class="st10" x="302.4" y="518.4" width="17.8" height="17.8"/>
      <rect class="st10" x="320.1" y="518.4" width="17.8" height="17.8"/>
      <rect class="st10" x="337.9" y="518.4" width="17.8" height="17.8"/>
      <rect class="st10" x="355.7" y="518.4" width="17.8" height="17.8"/>
      <rect class="st12" x="373.4" y="518.4" width="17.8" height="17.8"/>
      <rect class="st12" x="391.2" y="518.4" width="17.8" height="17.8"/>
      <rect class="st12" x="409" y="518.4" width="17.8" height="17.8"/>
      <rect class="st12" x="426.7" y="518.4" width="17.8" height="17.8"/>
      <rect class="st12" x="266.8" y="518.4" width="17.8" height="17.8"/>
      <rect class="st12" x="284.6" y="536.2" width="17.8" height="17.8"/>
      <rect class="st12" x="302.4" y="536.2" width="17.8" height="17.8"/>
      <rect class="st12" x="320.1" y="536.2" width="17.8" height="17.8"/>
      <rect class="st12" x="337.9" y="536.2" width="17.8" height="17.8"/>
      <rect class="st12" x="355.7" y="536.2" width="17.8" height="17.8"/>
      <rect class="st11" x="373.4" y="536.2" width="17.8" height="17.8"/>
      <rect class="st11" x="391.2" y="536.2" width="17.8" height="17.8"/>
      <rect class="st11" x="409" y="536.2" width="17.8" height="17.8"/>
      <rect class="st11" x="426.7" y="536.2" width="17.8" height="17.8"/>
      <rect class="st11" x="266.8" y="536.2" width="17.8" height="17.8"/>
    </g>
  </g>
  <g class="st4">
    <g class="st4">
      <text class="st6" transform="translate(48.2 150.1)"><tspan x="0" y="0">Time penalty</tspan></text>
    </g>
  </g>
  <g class="st4">
    <g class="st4">
      <text class="st6" transform="translate(149.3 150.2)"><tspan x="0" y="0">Position penalty</tspan></text>
    </g>
  </g>
  <g class="st4">
    <g class="st4">
      <text class="st6" transform="translate(261.2 150.2)"><tspan x="0" y="0">Monetary fine</tspan></text>
    </g>
  </g>
  <g class="st4">
    <g class="st4">
      <text class="st6" transform="translate(358.1 150.2)"><tspan x="0" y="0">Disqualification</tspan></text>
    </g>
  </g>
  <rect class="st12" x="132.6" y="139.4" width="13.2" height="13.2"/>
  <rect class="st11" x="30.6" y="139.4" width="13.2" height="13.2"/>
  <rect class="st10" x="242.9" y="139.4" width="13.2" height="13.2"/>
  <rect class="st8" x="342.5" y="139.1" width="13.2" height="13.2"/>
  <g class="st4">
    <g class="st4">
      <text class="st5" transform="translate(133.6 398.4)"><tspan x="0" y="0">Red Bull</tspan></text>
    </g>
  </g>
  <image class="st4" width="3396" height="1177" transform="translate(26.4 369.3) scale(0)" xlink:href="chart-3-1.png"/>
  <image class="st4" width="3139" height="836" transform="translate(14.6 169.3) scale(0)" xlink:href="chart-3-2.png"/>
  <g class="st4">
    <g class="st4">
      <text class="st5" transform="translate(121.1 193.2)"><tspan x="0" y="0">Aston Martin</tspan></text>
    </g>
  </g>
  <image class="st4" width="1113" height="616" transform="translate(293.7 169.8) scale(0)" xlink:href="chart-3-3.png"/>
  <g class="st4">
    <g class="st4">
      <text class="st5" transform="translate(363.8 202.4)"><tspan x="0" y="0">Alpine</tspan></text>
    </g>
  </g>
  <image class="st4" width="62" height="74" transform="translate(533.3 174.8) scale(.5)" xlink:href="chart-3-4.png"/>
  <g class="st4">
    <g class="st4">
      <text class="st5" transform="translate(570.6 201.5)"><tspan x="0" y="0">Kick Sauber</tspan></text>
    </g>
  </g>
  <image class="st4" width="800" height="706" transform="translate(541.9 265.7) scale(0)" xlink:href="../../Downloads/Logo_Haas_F1.png"/>
  <g class="st4">
    <g class="st4">
      <text class="st5" transform="translate(343.4 289.2)"><tspan x="0" y="0">Mercedes</tspan></text>
    </g>
  </g>
  <image class="st4" width="2048" height="2048" transform="translate(293.7 256.2) scale(0)" xlink:href="Mercedes-Logo.svg.png"/>
  <g class="st4">
    <g class="st4">
      <text class="st5" transform="translate(120.2 295.4)"><tspan x="0" y="0">McLaren</tspan></text>
    </g>
  </g>
  <image class="st4" width="1182" height="681" transform="translate(49.2 265.7) scale(0)" xlink:href="chart-3-5.png"/>
  <g class="st4">
    <g class="st4">
      <text class="st5" transform="translate(343.4 405.9)"><tspan x="0" y="0">Ferrari</tspan></text>
    </g>
  </g>
  <image class="st4" width="2400" height="2400" transform="translate(287.1 362.6) scale(0)" xlink:href="ferrari-ges-logo-png-transparent.png"/>
  <g class="st4">
    <g class="st4">
      <text class="st5" transform="translate(557.5 399.7)"><tspan x="0" y="0">Racing Bulls</tspan></text>
    </g>
  </g>
  <g class="st4">
    <g class="st4">
      <text class="st5" transform="translate(346.7 498)"><tspan x="0" y="0">Williams Racing</tspan></text>
    </g>
  </g>
  <g class="st13">
    <path id="path13" class="st7" d="M516.7,372.5v15.1c0,.1.3.2.4.4,1,1.2,1.2,3.1.2,4.4-.2.2-.4.5-.6.7v2.8c0,0,.2-.1.3-.2,0,0,0,0,.2-.1,0,0,.2-.1.7-.5.9-.7,2.1-1.6,3.3-1.9.4,0,.6-.1.8-.2v-16.1h2.8c2,0,3.5,1.5,3.5,3.3s-1.6,3.3-3.6,3.3h-1.3v6.1l1.5,2.4c.2-.1.3-.3.5-.4h0c1.2-1,2.4-1.4,4-1.4h0c0-.1-1.9-2.7-1.9-2.7,3.3-.8,5.8-3.8,5.8-7.3s-3.4-7.5-7.6-7.5h-9.3l.2-.2h0ZM535.5,372.5v14.4s.3-.2.5-.3c.3-.2.6-.4,1-.6h0c.6-.3,1.4-.4,2.2-.4s1.1,0,1.6.3v-8.9h3.4c1.5,0,2.7,1.4,2.7,2.8s-1.2,2.7-2.7,2.7h-1.8v4.1s.3.2.4.3h0c0,.1,2.6.1,2.6.1,1.8,0,3.2,1.5,3.2,3.3s-.2,1.2-.4,1.7c.8.9,1.7,2.1,2.2,3h0c.2.4.5,1,.6,1.5,1.9-1.3,3.1-3.4,3.1-5.8s-1-4.9-4.4-6.5c1.4-1.3,2.2-3,2.2-4.9s-.7-3.3-1.8-4.6c-1.2-1.3-3.3-2.1-6.2-2.1h-8.7.3ZM510.7,386.8c-.2.4-.3.8-.3,1.2.1,1,.9,2,1.8,2.4h0c.3.2.6.2.9.2h1c.2,0,.3.2.4.4,0,.1,0,.2-.2.4l-.4.4c-.8.6-1.5,1.3-2.2,2.1-.9.9-.9,2.6-.5,3.6.5,1.4,1.9,2.2,3.1,2.3h.6c.7,0,1.4-.2,2-.3h0v2.2c0,.4.3,1,.5,1.4v.9c-.5.4-1.5.8-1.7.8h-1.1c0,0-.2,0-.3.1s-.3.5-.5,1c0,.3-.2.5-.3.8-.3.5-.8.8-1.3,1.1,0,0-.3.1-.4.2h0c-.2.3-.4.6-.7.9-.2.2-.5.2-.7.3h0c-.4.5-.5,1.1-.6,1.6v.3h0c.2,0,.4,0,.6.1.3,0,.6.1.9.1s.5,0,.7-.2c.4-.2.6-.5.8-.8,0-.2.3-.4.4-.6,0-.1.2-.2.4-.2h.9c.7,0,1.3-.4,1.7-.6,0-.1.3-.2.4-.4.2-.2.4-.4.7-.5s.6-.2,1-.2,1.1.1,1.5.2h.7c.4,0,.8,0,1.1-.3.4-.2.8-.4,1.1-.6.2,0,.3-.2.5-.3.5-.3,1-1.2,1.2-1.5s.4-1,.4-1h0l-.6-.5h0s-.4.7-.7,1.1c-1.1,1.5-3,1.7-4.5,1.7h-.3c-1.8,0-3.3.6-4.4,1.8h-.2c0-.2,0-.3,0-.4,1.2-1.6,3.1-1.9,4.7-1.9s2-.3,2.8-.7c1-.5,1.7-1.5,1.9-2.4.2-.6.3-1.2.4-1.7,0-.5,0-.9.3-1.4h0s.2,0,.2.1c-.2.9-.4,2.1,0,3.2.2.4.6.6,1.2.6s.8,0,1.2-.1c.3,0,.6,0,.9-.1h.3c.5,0,1,.1,1.5.2.4,0,.8.2,1.3.2h.8c.4,0,.6,0,.8-.2v-.5h0v-.2c0-.3-.2-.7,0-.9h.2v.2c0,.3.2.7.4,1,.4.6,1.2,1.1,2,1.6.6.4,1.2,1,1.3,1.9,0,.4-.4.7-.7.9-.5.2-1.2.5-1.6.5s-.5-.2-.6-.2c-.5-.4-.4-.6-.7-1.1-.2-.3-.3-.5-.5-.8-.3-.3-.6-.4-1.1-.4s-.9.1-1.4.2c0,0-.2,0-.2.2v.3c.3.5.5.9.8,1.3v.2c.2.1.3.1.4.1h.4c.2,0,.4,0,.5.2,0,.1.2.3.2.4.2.3.4.6.7.9.3.2.7.4,1.1.4h.5c1.2-.4,2.4-.8,3.5-1.4h.7c.4,0,.8,0,1.1-.4.4-.5.7-1,.9-1.6.2-.5.2-1,0-1.4-.7-1.2-.8-1.5-1.1-2.2h-.3c-.2,0-.4-.1-.6-.1h0c-.2,0-.4,0-.5.2h0l1.3,2.6c0,.2.2.4,0,.7s-.7,1.3-.9,1.4h0v-.2c0-.4.3-1.4.2-1.7,0-.4-1.1-2.2-1.2-2.2h0c-.2-.3-.3-.6-.3-.9s0-.3.3-.3.4-.1.6-.1c.5,0,.9-.2,1.1-.5.5-.8.8-1.6,1-2.8h0q0-.1,0,0c.2,1.1,0,2.2-.7,3.1v.5c.3.2,1.2,0,1.8-.3.5,0,1,0,1.4-.2h.4c-.4.4-.6.9-.7,1.5,0,.1-.2.2-.3.3-.4.4-.9.8-.9,1.4,0,0,0,.2.2.2h.4c0,.1-.5.8-.5.8-.2.3,0,.6,0,.9v.4c0,.3.6.5.9.5.6,0,1.2-.2,1.8-.4,0,0,.2,0,.3-.1.6-.3,1.4-.3,2.4-.2.8,0,1.4-.6,1.9-1.1.3,0,.5.1.8.4.8.9,1.9,1.3,3.1,1.3h.3s.2-.1.2-.2c0,0,0-.2-.2-.3l-.7-.4c-.6-.4-1.2-.8-1.4-1.4s-.5-1.2-.8-1.7c0,0,0-.2-.2-.3,0-.1-.2-.3-.3-.4.8.3,1.2.8,1.7,1.8.4.7,1.4,1.5,2.4,1.5s.3,0,.4,0,.2,0,.2-.2v-.2l-.6-.3c-.7-.4-1.1-1.1-1.5-1.7,0-.3-.3-.5-.5-.8,0-.2-.3-.3-.5-.5,0-.1-.3-.3-.3-.3-.6-1.7-1.3-3.8-1.5-6,0-.4-.3-1.1-.6-1.6-.9-1.5-3.1-4-3.2-4.1l-.2-.2h0l-3.9-3.3c-.8-.5-1-.6-1.6-.8-.4-.1-.8-.2-1.2-.2s-1.1.1-1.5.3c-.3.2-.6.4-.9.5-.5.3-1,.6-1.6.8-.4.2-.9.3-1.3.5-.9.3-1.8.6-2.5,1.2-.2.2-.4.4-.5.5-.7.6-.7.7-1.3.7-1.3,0-2.2.3-3.1,1.1-.7.7-1.5,1.3-2.3,1.6-.4.1-.8.2-1.3.2s-.7,0-1.3.2c-.9.2-1.9,1-2.7,1.6-.3.2-.6.5-.8.6,0,0-.2.1-.3.2-1,.6-2,1.2-3.2,1.2h0c-.9,0-1.8-.7-2-1.5-.3-1,0-1.9.8-2.7.4-.4.8-.7,1.2-1,.6-.5,1.2-1,1.7-1.6s.4-1.7,0-2.3c-.5-.6-1.8-.9-2.2-1h-.2c-.3,0-.6-.1-.8-.2-.7-.2-1.3-.8-1.9-1.1v.5h.4ZM540,392.1h.2c.2,0,.4.3.6.7.5,1,0,2.5,0,2.5h0q0,.1,0,0c-.2-1-.3-1.5-.6-2,0-.2-.2-.3-.3-.4-.2-.2-.3-.4-.2-.7,0,0,.2-.1.3-.1h0ZM547.3,398.5s.3,0,.5.3c.3.4.2.3.3.4s.2.3.4.5.5.8.6,1.1v1.2s0,.2-.3.2-.2-.2-.2-.3v-.9c0-.3-.8-1.1-1.1-1.1,0,0-.3.1-.5.4s-.2.3-.3.4-.2,0-.2-.1v-.6c0-.3.2-.4.3-.6,0,0,.2-.4.3-.6.2-.3.5-.3.5-.3h-.3ZM547,405h.3c.2,0,0,.6,0,.6,0,0,0,.3-.2.4,0,.1-.6.2-.9.2s-.4,0-.4-.1v-.3s.3-.7,1-.9h.2ZM535.1,405.9c-.5,0-1,.1-1.5.1s-.2,0-.2.1,0,.3.2.4l.2.2c0,.1.2.4.3.6,0,.3.3.6.4.6h.2c.3,0,.8-.2,1.1-.4.2-.2,0-.3,0-.4v-.2c0-.2,0-.4-.2-.5,0-.3-.2-.6-.5-.6h0ZM511.3,406.6h-.2s-.2.1-.3.2c-.3.2-.6.4-.9.6-.1,0-.2.3-.2.4v.3l.3.3s.2.1.4.1h.3c.5-.3,1.1-1.3,1.1-1.3,0-.2-.1-.3-.4-.5h-.2.1ZM509.1,408.5h0c-.3.1-.6.5-.6.7,0,1-.1,1.1-.4,1.4,0,0-.1.3,0,.4s1,.4,1.1.4h0s.2-.2.3-.9c.1-.4.2-.8.4-1.1v-.2c-.1-.2-.5-.6-.7-.6h0Z"/>
  </g>
  <image class="st4" width="3356" height="2543" transform="translate(293.1 471.9) scale(0)" xlink:href="Logo_Williams_F1.png"/>
  <g class="st4">
    <g class="st4">
      <text class="st1" transform="translate(10.5 27)"><tspan x="0" y="0">Time penalties are the most comon for most teams,</tspan></text>
    </g>
    <g class="st4">
      <text class="st1" transform="translate(10.5 53.4)"><tspan x="0" y="0">followed by position penalties</tspan></text>
    </g>
  </g>
  <g class="st4">
    <g class="st4">
      <text class="st3" transform="translate(10.9 82.3)"><tspan x="0" y="0">Top-ranked teams like Red Bull and one of the lowest-ranked teams, Haas, faced the most</tspan></text>
    </g>
    <g class="st4">
      <text class="st3" transform="translate(10.9 101.5)"><tspan x="0" y="0">penalties in 2024.</tspan></text>
    </g>
  </g>
  <rect class="st9" x="30.6" y="117.8" width="13.2" height="13.2"/>
  <g class="st4">
    <g class="st4">
      <text class="st6" transform="translate(48.2 128.8)"><tspan x="0" y="0">1 square = 1 penalty</tspan></text>
    </g>
  </g>
  <g class="st4">
    <g class="st4">
      <g class="st4">
        <g class="st4">
          <text class="st2" transform="translate(12.8 615.4)"><tspan x="0" y="0">Source: FIA, Chart by Hazel Gandhi</tspan></text>
        </g>
      </g>
    </g>
  </g>
  <g class="st4">
    <text class="st2" transform="translate(13.6 599.1)"><tspan x="0" y="0">Note: Does not include warnings as well as infringements where no action was taken</tspan></text>
  </g>
</svg>